# xmcd
#
# Track frame offsets: 
#        150
#        15397
#        31867
#        47445
#        70157
#        85907
#        101442
#        126370
#        147572
#        161840
#
# Disc length: 2336 seconds
#
# Revision: 0
# Processed by: cddbd v1.4PL0 Copyright (c) Steve Scherf et al.
# Submitted via: ExactAudioCopy v0.95a3
#
DISCID=7e091e0a
DTITLE=Mark Insley - Good Country Junk
DYEAR=1996
DGENRE=Country
TTITLE0=The Devil's Knocking
TTITLE1=Fast Train To Nowhere
TTITLE2=Paper Thin Disguise
TTITLE3=Lay Your Burden Die To Die
TTITLE4=What A Shame
TTITLE5=Day Of The Dead
TTITLE6=Six Feet Under
TTITLE7=Just A Wave
TTITLE8=Hotel Happiness
TTITLE9=Leavenworth
EXTD=
EXTT0=
EXTT1=
EXTT2=
EXTT3=
EXTT4=
EXTT5=
EXTT6=
EXTT7=
EXTT8=
EXTT9=
PLAYORDER=
